solid OpenSCAD_Model
  facet normal -1 0 0
    outer loop
      vertex -15 25 0
      vertex -15 1.25 3
      vertex -15 25 6
    endloop
  endfacet
  facet normal -1 0 0
    outer loop
      vertex -15 25 0
      vertex -15 1.15485 2.52165
      vertex -15 1.25 3
    endloop
  endfacet
  facet normal -1 0 0
    outer loop
      vertex -15 25 0
      vertex -15 0.883883 2.11612
      vertex -15 1.15485 2.52165
    endloop
  endfacet
  facet normal -1 0 0
    outer loop
      vertex -15 25 0
      vertex -15 0.478354 1.84515
      vertex -15 0.883883 2.11612
    endloop
  endfacet
  facet normal -1 0 0
    outer loop
      vertex -15 25 0
      vertex -15 0 1.75
      vertex -15 0.478354 1.84515
    endloop
  endfacet
  facet normal -1 -0 0
    outer loop
      vertex -15 -1.15485 2.52165
      vertex -15 -25 0
      vertex -15 -1.25 3
    endloop
  endfacet
  facet normal -1 -0 0
    outer loop
      vertex -15 -0.883883 2.11612
      vertex -15 -25 0
      vertex -15 -1.15485 2.52165
    endloop
  endfacet
  facet normal -1 -0 0
    outer loop
      vertex -15 -0.478354 1.84515
      vertex -15 -25 0
      vertex -15 -0.883883 2.11612
    endloop
  endfacet
  facet normal -1 -0 0
    outer loop
      vertex -15 0 1.75
      vertex -15 -25 0
      vertex -15 -0.478354 1.84515
    endloop
  endfacet
  facet normal -1 0 0
    outer loop
      vertex -15 -25 0
      vertex -15 0 1.75
      vertex -15 25 0
    endloop
  endfacet
  facet normal -1 0 0
    outer loop
      vertex -15 1.15485 3.47835
      vertex -15 25 6
      vertex -15 1.25 3
    endloop
  endfacet
  facet normal -1 0 0
    outer loop
      vertex -15 0.883883 3.88388
      vertex -15 25 6
      vertex -15 1.15485 3.47835
    endloop
  endfacet
  facet normal -1 0 0
    outer loop
      vertex -15 0.478354 4.15485
      vertex -15 25 6
      vertex -15 0.883883 3.88388
    endloop
  endfacet
  facet normal -1 0 0
    outer loop
      vertex -15 0 4.25
      vertex -15 25 6
      vertex -15 0.478354 4.15485
    endloop
  endfacet
  facet normal -1 0 0
    outer loop
      vertex -15 -25 6
      vertex -15 -1.25 3
      vertex -15 -25 0
    endloop
  endfacet
  facet normal -1 0 0
    outer loop
      vertex -15 -1.25 3
      vertex -15 -25 6
      vertex -15 -1.15485 3.47835
    endloop
  endfacet
  facet normal -1 0 0
    outer loop
      vertex -15 -1.15485 3.47835
      vertex -15 -25 6
      vertex -15 -0.883883 3.88388
    endloop
  endfacet
  facet normal -1 0 0
    outer loop
      vertex -15 -0.883883 3.88388
      vertex -15 -25 6
      vertex -15 -0.478354 4.15485
    endloop
  endfacet
  facet normal -1 0 0
    outer loop
      vertex -15 0 4.25
      vertex -15 -25 6
      vertex -15 25 6
    endloop
  endfacet
  facet normal -1 0 0
    outer loop
      vertex -15 -0.478354 4.15485
      vertex -15 -25 6
      vertex -15 0 4.25
    endloop
  endfacet
  facet normal -0 0 1
    outer loop
      vertex -15 25 6
      vertex -7 -25 6
      vertex -7 25 6
    endloop
  endfacet
  facet normal 0 0 1
    outer loop
      vertex -7 -25 6
      vertex -15 25 6
      vertex -15 -25 6
    endloop
  endfacet
  facet normal 1 0 0
    outer loop
      vertex -7 25 6
      vertex -7 1.25 3
      vertex -7 25 0
    endloop
  endfacet
  facet normal 1 0 0
    outer loop
      vertex -7 25 6
      vertex -7 1.15485 3.47835
      vertex -7 1.25 3
    endloop
  endfacet
  facet normal 1 0 0
    outer loop
      vertex -7 25 6
      vertex -7 0.883883 3.88388
      vertex -7 1.15485 3.47835
    endloop
  endfacet
  facet normal 1 0 0
    outer loop
      vertex -7 25 6
      vertex -7 0.478354 4.15485
      vertex -7 0.883883 3.88388
    endloop
  endfacet
  facet normal 1 0 0
    outer loop
      vertex -7 25 6
      vertex -7 0 4.25
      vertex -7 0.478354 4.15485
    endloop
  endfacet
  facet normal 1 0 0
    outer loop
      vertex -7 -1.15485 3.47835
      vertex -7 -25 6
      vertex -7 -1.25 3
    endloop
  endfacet
  facet normal 1 0 0
    outer loop
      vertex -7 -0.883883 3.88388
      vertex -7 -25 6
      vertex -7 -1.15485 3.47835
    endloop
  endfacet
  facet normal 1 0 0
    outer loop
      vertex -7 -0.478354 4.15485
      vertex -7 -25 6
      vertex -7 -0.883883 3.88388
    endloop
  endfacet
  facet normal 1 0 0
    outer loop
      vertex -7 0 4.25
      vertex -7 -25 6
      vertex -7 -0.478354 4.15485
    endloop
  endfacet
  facet normal 1 -0 0
    outer loop
      vertex -7 -25 6
      vertex -7 0 4.25
      vertex -7 25 6
    endloop
  endfacet
  facet normal 1 -0 0
    outer loop
      vertex -7 1.15485 2.52165
      vertex -7 25 0
      vertex -7 1.25 3
    endloop
  endfacet
  facet normal 1 -0 0
    outer loop
      vertex -7 0.883883 2.11612
      vertex -7 25 0
      vertex -7 1.15485 2.52165
    endloop
  endfacet
  facet normal 1 -0 0
    outer loop
      vertex -7 0.478354 1.84515
      vertex -7 25 0
      vertex -7 0.883883 2.11612
    endloop
  endfacet
  facet normal 1 -0 0
    outer loop
      vertex -7 0 1.75
      vertex -7 25 0
      vertex -7 0.478354 1.84515
    endloop
  endfacet
  facet normal 1 0 0
    outer loop
      vertex -7 -25 0
      vertex -7 -1.25 3
      vertex -7 -25 6
    endloop
  endfacet
  facet normal 1 0 0
    outer loop
      vertex -7 -1.25 3
      vertex -7 -25 0
      vertex -7 -1.15485 2.52165
    endloop
  endfacet
  facet normal 1 0 0
    outer loop
      vertex -7 -1.15485 2.52165
      vertex -7 -25 0
      vertex -7 -0.883883 2.11612
    endloop
  endfacet
  facet normal 1 0 0
    outer loop
      vertex -7 -0.883883 2.11612
      vertex -7 -25 0
      vertex -7 -0.478354 1.84515
    endloop
  endfacet
  facet normal 1 0 0
    outer loop
      vertex -7 0 1.75
      vertex -7 -25 0
      vertex -7 25 0
    endloop
  endfacet
  facet normal 1 0 0
    outer loop
      vertex -7 -0.478354 1.84515
      vertex -7 -25 0
      vertex -7 0 1.75
    endloop
  endfacet
  facet normal 0 1 -0
    outer loop
      vertex -7 25 0
      vertex -15 25 6
      vertex -7 25 6
    endloop
  endfacet
  facet normal 0 1 0
    outer loop
      vertex -15 25 6
      vertex -7 25 0
      vertex -15 25 0
    endloop
  endfacet
  facet normal 0 0 -1
    outer loop
      vertex -15 -25 0
      vertex -7 25 0
      vertex -7 -25 0
    endloop
  endfacet
  facet normal -0 0 -1
    outer loop
      vertex -7 25 0
      vertex -15 -25 0
      vertex -15 25 0
    endloop
  endfacet
  facet normal 0 -1 0
    outer loop
      vertex -15 -25 0
      vertex -7 -25 6
      vertex -15 -25 6
    endloop
  endfacet
  facet normal 0 -1 -0
    outer loop
      vertex -7 -25 6
      vertex -15 -25 0
      vertex -7 -25 0
    endloop
  endfacet
  facet normal 0.195872 0.980629 -0
    outer loop
      vertex 9.176 24.703 0
      vertex 8.41 24.856 6
      vertex 9.176 24.703 6
    endloop
  endfacet
  facet normal 0.195872 0.980629 0
    outer loop
      vertex 8.41 24.856 6
      vertex 9.176 24.703 0
      vertex 8.41 24.856 0
    endloop
  endfacet
  facet normal 0.303342 -0.952882 0
    outer loop
      vertex 11.749 -24.856 0
      vertex 12.038 -24.764 6
      vertex 11.749 -24.856 6
    endloop
  endfacet
  facet normal 0.303342 -0.952882 0
    outer loop
      vertex 12.038 -24.764 6
      vertex 11.749 -24.856 0
      vertex 12.038 -24.764 0
    endloop
  endfacet
  facet normal 0 -1 0
    outer loop
      vertex 9.354 9.856 0
      vertex 9.91 9.856 6
      vertex 9.354 9.856 6
    endloop
  endfacet
  facet normal 0 -1 -0
    outer loop
      vertex 9.91 9.856 6
      vertex 9.354 9.856 0
      vertex 9.91 9.856 0
    endloop
  endfacet
  facet normal 0.941618 0.336682 0
    outer loop
      vertex -3.228 -22.738 6
      vertex -3.351 -22.394 0
      vertex -3.351 -22.394 6
    endloop
  endfacet
  facet normal 0.941618 0.336682 0
    outer loop
      vertex -3.351 -22.394 0
      vertex -3.228 -22.738 6
      vertex -3.228 -22.738 0
    endloop
  endfacet
  facet normal 0.381275 -0.924462 0
    outer loop
      vertex 9.91 9.856 0
      vertex 10.264 10.002 6
      vertex 9.91 9.856 6
    endloop
  endfacet
  facet normal 0.381275 -0.924462 0
    outer loop
      vertex 10.264 10.002 6
      vertex 9.91 9.856 0
      vertex 10.264 10.002 0
    endloop
  endfacet
  facet normal 0.400411 0.916336 -0
    outer loop
      vertex -2.871 -22.894 0
      vertex -3.228 -22.738 6
      vertex -2.871 -22.894 6
    endloop
  endfacet
  facet normal 0.400411 0.916336 0
    outer loop
      vertex -3.228 -22.738 6
      vertex -2.871 -22.894 0
      vertex -3.228 -22.738 0
    endloop
  endfacet
  facet normal 0.196114 -0.980581 0
    outer loop
      vertex 5.41 -21.894 0
      vertex 5.8 -21.816 6
      vertex 5.41 -21.894 6
    endloop
  endfacet
  facet normal 0.196114 -0.980581 0
    outer loop
      vertex 5.8 -21.816 6
      vertex 5.41 -21.894 0
      vertex 5.8 -21.816 0
    endloop
  endfacet
  facet normal 0.798816 -0.601576 0
    outer loop
      vertex 12.038 -24.764 6
      vertex 12.221 -24.521 0
      vertex 12.221 -24.521 6
    endloop
  endfacet
  facet normal 0.798816 -0.601576 0
    outer loop
      vertex 12.221 -24.521 0
      vertex 12.038 -24.764 6
      vertex 12.038 -24.764 0
    endloop
  endfacet
  facet normal 1 -0 0
    outer loop
      vertex -4 -25 6
      vertex -4 -24.856 0
      vertex -4 -24.856 6
    endloop
  endfacet
  facet normal 1 0 0
    outer loop
      vertex -4 -24.856 0
      vertex -4 -25 6
      vertex -4 -25 0
    endloop
  endfacet
  facet normal 0 -1 0
    outer loop
      vertex -4 -24.856 0
      vertex 11.749 -24.856 6
      vertex -4 -24.856 6
    endloop
  endfacet
  facet normal 0 -1 -0
    outer loop
      vertex 11.749 -24.856 6
      vertex -4 -24.856 0
      vertex 11.749 -24.856 0
    endloop
  endfacet
  facet normal 0.924462 -0.381275 0
    outer loop
      vertex 10.264 10.002 6
      vertex 10.41 10.356 0
      vertex 10.41 10.356 6
    endloop
  endfacet
  facet normal 0.924462 -0.381275 0
    outer loop
      vertex 10.41 10.356 0
      vertex 10.264 10.002 6
      vertex 10.264 10.002 0
    endloop
  endfacet
  facet normal 0.999559 -0.0296893 0
    outer loop
      vertex 12.221 -24.521 6
      vertex 12.23 -24.218 0
      vertex 12.23 -24.218 6
    endloop
  endfacet
  facet normal 0.999559 -0.0296893 0
    outer loop
      vertex 12.23 -24.218 0
      vertex 12.221 -24.521 6
      vertex 12.221 -24.521 0
    endloop
  endfacet
  facet normal 1 -0 0
    outer loop
      vertex -4 24.856 6
      vertex -4 25 0
      vertex -4 25 6
    endloop
  endfacet
  facet normal 1 0 0
    outer loop
      vertex -4 25 0
      vertex -4 24.856 6
      vertex -4 24.856 0
    endloop
  endfacet
  facet normal 0.833063 0.553177 0
    outer loop
      vertex 12.23 -24.218 6
      vertex 12.062 -23.965 0
      vertex 12.062 -23.965 6
    endloop
  endfacet
  facet normal 0.833063 0.553177 0
    outer loop
      vertex 12.062 -23.965 0
      vertex 12.23 -24.218 6
      vertex 12.23 -24.218 0
    endloop
  endfacet
  facet normal 1 -0 0
    outer loop
      vertex 10.41 10.356 6
      vertex 10.41 22.856 0
      vertex 10.41 22.856 6
    endloop
  endfacet
  facet normal 1 0 0
    outer loop
      vertex 10.41 22.856 0
      vertex 10.41 10.356 6
      vertex 10.41 10.356 0
    endloop
  endfacet
  facet normal 0.624695 0.780869 -0
    outer loop
      vertex 12.062 -23.965 0
      vertex 8.067 -20.769 6
      vertex 12.062 -23.965 6
    endloop
  endfacet
  facet normal 0.624695 0.780869 0
    outer loop
      vertex 8.067 -20.769 6
      vertex 12.062 -23.965 0
      vertex 8.067 -20.769 0
    endloop
  endfacet
  facet normal -0.90247 -0.430753 0
    outer loop
      vertex 8.451 10.425 0
      vertex 7.41 12.606 6
      vertex 7.41 12.606 0
    endloop
  endfacet
  facet normal -0.90247 -0.430753 0
    outer loop
      vertex 7.41 12.606 6
      vertex 8.451 10.425 0
      vertex 8.451 10.425 6
    endloop
  endfacet
  facet normal -0 0 1
    outer loop
      vertex 7.41 12.606 6
      vertex 10.41 10.356 6
      vertex 10.41 22.856 6
    endloop
  endfacet
  facet normal 0 0 1
    outer loop
      vertex 8.41 24.856 6
      vertex 10.41 22.856 6
      vertex 10.258 23.621 6
    endloop
  endfacet
  facet normal -0 -0 1
    outer loop
      vertex 8.451 10.425 6
      vertex 10.41 10.356 6
      vertex 7.41 12.606 6
    endloop
  endfacet
  facet normal 0 0 1
    outer loop
      vertex 8.41 24.856 6
      vertex 10.258 23.621 6
      vertex 9.825 24.27 6
    endloop
  endfacet
  facet normal 0 -0 1
    outer loop
      vertex 9.354 9.856 6
      vertex 10.41 10.356 6
      vertex 8.451 10.425 6
    endloop
  endfacet
  facet normal 0 0 1
    outer loop
      vertex 8.41 24.856 6
      vertex 9.825 24.27 6
      vertex 9.176 24.703 6
    endloop
  endfacet
  facet normal 0 -0 1
    outer loop
      vertex 9.91 9.856 6
      vertex 10.41 10.356 6
      vertex 9.354 9.856 6
    endloop
  endfacet
  facet normal 0 0 1
    outer loop
      vertex 10.41 10.356 6
      vertex 9.91 9.856 6
      vertex 10.264 10.002 6
    endloop
  endfacet
  facet normal 0 0 1
    outer loop
      vertex 10.41 22.856 6
      vertex 8.41 24.856 6
      vertex 6.41 12.606 6
    endloop
  endfacet
  facet normal 0 0 1
    outer loop
      vertex 9.354 9.856 6
      vertex 8.451 10.425 6
      vertex 8.82 10.01 6
    endloop
  endfacet
  facet normal 0 0 1
    outer loop
      vertex 10.41 22.856 6
      vertex 6.41 12.606 6
      vertex 7.41 12.606 6
    endloop
  endfacet
  facet normal 0 0 1
    outer loop
      vertex -2.871 -21.894 6
      vertex 6.41 -20.894 6
      vertex 6.41 12.606 6
    endloop
  endfacet
  facet normal 0 -0 1
    outer loop
      vertex 5.41 -21.894 6
      vertex 6.41 -20.894 6
      vertex -2.871 -21.894 6
    endloop
  endfacet
  facet normal 0 0 1
    outer loop
      vertex 6.41 -20.894 6
      vertex 5.41 -21.894 6
      vertex 6.332 -21.284 6
    endloop
  endfacet
  facet normal 0 0 1
    outer loop
      vertex 6.117 -21.602 6
      vertex 5.41 -21.894 6
      vertex 5.8 -21.816 6
    endloop
  endfacet
  facet normal 0 0 1
    outer loop
      vertex 6.332 -21.284 6
      vertex 5.41 -21.894 6
      vertex 6.117 -21.602 6
    endloop
  endfacet
  facet normal -0 0 1
    outer loop
      vertex -4 24.856 6
      vertex 6.41 12.606 6
      vertex 8.41 24.856 6
    endloop
  endfacet
  facet normal 0 0 1
    outer loop
      vertex -6.998 25 6
      vertex 6.41 12.606 6
      vertex -4 24.856 6
    endloop
  endfacet
  facet normal 0 -0 1
    outer loop
      vertex -3.235 -22.051 6
      vertex 6.41 12.606 6
      vertex -6.998 25 6
    endloop
  endfacet
  facet normal 0 0 1
    outer loop
      vertex 6.41 12.606 6
      vertex -3.235 -22.051 6
      vertex -2.871 -21.894 6
    endloop
  endfacet
  facet normal 0 0 1
    outer loop
      vertex 12.062 -23.965 6
      vertex 12.221 -24.521 6
      vertex 12.23 -24.218 6
    endloop
  endfacet
  facet normal 0 0 1
    outer loop
      vertex 12.062 -23.965 6
      vertex 12.038 -24.764 6
      vertex 12.221 -24.521 6
    endloop
  endfacet
  facet normal 0 0 1
    outer loop
      vertex 12.062 -23.965 6
      vertex 11.749 -24.856 6
      vertex 12.038 -24.764 6
    endloop
  endfacet
  facet normal -0 0 1
    outer loop
      vertex 7.66 -22.894 6
      vertex 12.062 -23.965 6
      vertex 8.067 -20.769 6
    endloop
  endfacet
  facet normal 0 0 1
    outer loop
      vertex 7.66 -20.965 6
      vertex 8.067 -20.769 6
      vertex 7.802 -20.739 6
    endloop
  endfacet
  facet normal 0 0 1
    outer loop
      vertex 8.067 -20.769 6
      vertex 7.66 -20.965 6
      vertex 7.66 -22.894 6
    endloop
  endfacet
  facet normal 0 0 1
    outer loop
      vertex 12.062 -23.965 6
      vertex 7.66 -22.894 6
      vertex 11.749 -24.856 6
    endloop
  endfacet
  facet normal 0 0 1
    outer loop
      vertex -4 -24.856 6
      vertex 7.66 -22.894 6
      vertex -2.871 -22.894 6
    endloop
  endfacet
  facet normal 0 0 1
    outer loop
      vertex 7.66 -22.894 6
      vertex -4 -24.856 6
      vertex 11.749 -24.856 6
    endloop
  endfacet
  facet normal 0 0 1
    outer loop
      vertex -3.228 -22.738 6
      vertex -4 -24.856 6
      vertex -2.871 -22.894 6
    endloop
  endfacet
  facet normal 0 0 1
    outer loop
      vertex -3.351 -22.394 6
      vertex -4 -24.856 6
      vertex -3.228 -22.738 6
    endloop
  endfacet
  facet normal 0 0 1
    outer loop
      vertex -6.998 -25 6
      vertex -3.235 -22.051 6
      vertex -6.998 25 6
    endloop
  endfacet
  facet normal -0 0 1
    outer loop
      vertex -6.998 25 6
      vertex -4 24.856 6
      vertex -4 25 6
    endloop
  endfacet
  facet normal 0 0 1
    outer loop
      vertex -3.235 -22.051 6
      vertex -6.998 -25 6
      vertex -3.351 -22.394 6
    endloop
  endfacet
  facet normal 0 0 1
    outer loop
      vertex -3.351 -22.394 6
      vertex -6.998 -25 6
      vertex -4 -24.856 6
    endloop
  endfacet
  facet normal 0 0 1
    outer loop
      vertex -4 -24.856 6
      vertex -6.998 -25 6
      vertex -4 -25 6
    endloop
  endfacet
  facet normal 0.112484 0.993653 -0
    outer loop
      vertex 8.067 -20.769 0
      vertex 7.802 -20.739 6
      vertex 8.067 -20.769 6
    endloop
  endfacet
  facet normal 0.112484 0.993653 0
    outer loop
      vertex 7.802 -20.739 6
      vertex 8.067 -20.769 0
      vertex 7.802 -20.739 0
    endloop
  endfacet
  facet normal -0.74731 -0.664475 0
    outer loop
      vertex 8.82 10.01 0
      vertex 8.451 10.425 6
      vertex 8.451 10.425 0
    endloop
  endfacet
  facet normal -0.74731 -0.664475 0
    outer loop
      vertex 8.451 10.425 6
      vertex 8.82 10.01 0
      vertex 8.82 10.01 6
    endloop
  endfacet
  facet normal 0.980827 0.194883 0
    outer loop
      vertex 10.41 22.856 6
      vertex 10.258 23.621 0
      vertex 10.258 23.621 6
    endloop
  endfacet
  facet normal 0.980827 0.194883 0
    outer loop
      vertex 10.258 23.621 0
      vertex 10.41 22.856 6
      vertex 10.41 22.856 0
    endloop
  endfacet
  facet normal -0.846732 0.532019 0
    outer loop
      vertex 7.66 -20.965 0
      vertex 7.802 -20.739 6
      vertex 7.802 -20.739 0
    endloop
  endfacet
  facet normal -0.846732 0.532019 0
    outer loop
      vertex 7.802 -20.739 6
      vertex 7.66 -20.965 0
      vertex 7.66 -20.965 6
    endloop
  endfacet
  facet normal 0.55952 -0.828817 0
    outer loop
      vertex 5.8 -21.816 0
      vertex 6.117 -21.602 6
      vertex 5.8 -21.816 6
    endloop
  endfacet
  facet normal 0.55952 -0.828817 0
    outer loop
      vertex 6.117 -21.602 6
      vertex 5.8 -21.816 0
      vertex 6.117 -21.602 0
    endloop
  endfacet
  facet normal -0.277097 -0.960842 0
    outer loop
      vertex 8.82 10.01 0
      vertex 9.354 9.856 6
      vertex 8.82 10.01 6
    endloop
  endfacet
  facet normal -0.277097 -0.960842 -0
    outer loop
      vertex 9.354 9.856 6
      vertex 8.82 10.01 0
      vertex 9.354 9.856 0
    endloop
  endfacet
  facet normal 0.831853 0.554996 0
    outer loop
      vertex 10.258 23.621 6
      vertex 9.825 24.27 0
      vertex 9.825 24.27 6
    endloop
  endfacet
  facet normal 0.831853 0.554996 0
    outer loop
      vertex 9.825 24.27 0
      vertex 10.258 23.621 6
      vertex 10.258 23.621 0
    endloop
  endfacet
  facet normal 0.828425 -0.560101 0
    outer loop
      vertex 6.117 -21.602 6
      vertex 6.332 -21.284 0
      vertex 6.332 -21.284 6
    endloop
  endfacet
  facet normal 0.828425 -0.560101 0
    outer loop
      vertex 6.332 -21.284 0
      vertex 6.117 -21.602 6
      vertex 6.117 -21.602 0
    endloop
  endfacet
  facet normal 0.554995 0.831854 -0
    outer loop
      vertex 9.825 24.27 0
      vertex 9.176 24.703 6
      vertex 9.825 24.27 6
    endloop
  endfacet
  facet normal 0.554995 0.831854 0
    outer loop
      vertex 9.176 24.703 6
      vertex 9.825 24.27 0
      vertex 9.176 24.703 0
    endloop
  endfacet
  facet normal 1 -0 0
    outer loop
      vertex 6.41 -20.894 6
      vertex 6.41 12.606 0
      vertex 6.41 12.606 6
    endloop
  endfacet
  facet normal 1 0 0
    outer loop
      vertex 6.41 12.606 0
      vertex 6.41 -20.894 6
      vertex 6.41 -20.894 0
    endloop
  endfacet
  facet normal 0 0 -1
    outer loop
      vertex 12.221 -24.521 0
      vertex 12.062 -23.965 0
      vertex 12.23 -24.218 0
    endloop
  endfacet
  facet normal 0 0 -1
    outer loop
      vertex 12.038 -24.764 0
      vertex 12.062 -23.965 0
      vertex 12.221 -24.521 0
    endloop
  endfacet
  facet normal 0 0 -1
    outer loop
      vertex 11.749 -24.856 0
      vertex 12.062 -23.965 0
      vertex 12.038 -24.764 0
    endloop
  endfacet
  facet normal 0 0 -1
    outer loop
      vertex 7.66 -22.894 0
      vertex 12.062 -23.965 0
      vertex 11.749 -24.856 0
    endloop
  endfacet
  facet normal 0 0 -1
    outer loop
      vertex 12.062 -23.965 0
      vertex 7.66 -22.894 0
      vertex 8.067 -20.769 0
    endloop
  endfacet
  facet normal 0 0 -1
    outer loop
      vertex 7.66 -20.965 0
      vertex 8.067 -20.769 0
      vertex 7.66 -22.894 0
    endloop
  endfacet
  facet normal 0 0 -1
    outer loop
      vertex -4 -24.856 0
      vertex 7.66 -22.894 0
      vertex 11.749 -24.856 0
    endloop
  endfacet
  facet normal -0 0 -1
    outer loop
      vertex -3.228 -22.738 0
      vertex -4 -24.856 0
      vertex -3.351 -22.394 0
    endloop
  endfacet
  facet normal -0 0 -1
    outer loop
      vertex -2.871 -22.894 0
      vertex -4 -24.856 0
      vertex -3.228 -22.738 0
    endloop
  endfacet
  facet normal -0 0 -1
    outer loop
      vertex 7.66 -22.894 0
      vertex -4 -24.856 0
      vertex -2.871 -22.894 0
    endloop
  endfacet
  facet normal -0 0 -1
    outer loop
      vertex 8.067 -20.769 0
      vertex 7.66 -20.965 0
      vertex 7.802 -20.739 0
    endloop
  endfacet
  facet normal 0 0 -1
    outer loop
      vertex 5.41 -21.894 0
      vertex 6.41 -20.894 0
      vertex 6.332 -21.284 0
    endloop
  endfacet
  facet normal 0 0 -1
    outer loop
      vertex 9.91 9.856 0
      vertex 10.41 10.356 0
      vertex 10.264 10.002 0
    endloop
  endfacet
  facet normal 0 0 -1
    outer loop
      vertex 10.41 10.356 0
      vertex 7.41 12.606 0
      vertex 10.41 22.856 0
    endloop
  endfacet
  facet normal 0 0 -1
    outer loop
      vertex 10.41 10.356 0
      vertex 9.91 9.856 0
      vertex 9.354 9.856 0
    endloop
  endfacet
  facet normal 0 0 -1
    outer loop
      vertex 6.41 12.606 0
      vertex 10.41 22.856 0
      vertex 7.41 12.606 0
    endloop
  endfacet
  facet normal -0 0 -1
    outer loop
      vertex 10.41 10.356 0
      vertex 9.354 9.856 0
      vertex 8.451 10.425 0
    endloop
  endfacet
  facet normal 0 -0 -1
    outer loop
      vertex 8.41 24.856 0
      vertex 10.41 22.856 0
      vertex 6.41 12.606 0
    endloop
  endfacet
  facet normal 0 0 -1
    outer loop
      vertex 8.451 10.425 0
      vertex 9.354 9.856 0
      vertex 8.82 10.01 0
    endloop
  endfacet
  facet normal 0 0 -1
    outer loop
      vertex 10.41 10.356 0
      vertex 8.451 10.425 0
      vertex 7.41 12.606 0
    endloop
  endfacet
  facet normal 0 0 -1
    outer loop
      vertex 10.41 22.856 0
      vertex 8.41 24.856 0
      vertex 10.258 23.621 0
    endloop
  endfacet
  facet normal 0 0 -1
    outer loop
      vertex 9.825 24.27 0
      vertex 8.41 24.856 0
      vertex 9.176 24.703 0
    endloop
  endfacet
  facet normal 0 0 -1
    outer loop
      vertex 10.258 23.621 0
      vertex 8.41 24.856 0
      vertex 9.825 24.27 0
    endloop
  endfacet
  facet normal 0 0 -1
    outer loop
      vertex 5.41 -21.894 0
      vertex 6.332 -21.284 0
      vertex 6.117 -21.602 0
    endloop
  endfacet
  facet normal 0 0 -1
    outer loop
      vertex 5.41 -21.894 0
      vertex 6.117 -21.602 0
      vertex 5.8 -21.816 0
    endloop
  endfacet
  facet normal 0 0 -1
    outer loop
      vertex 6.41 -20.894 0
      vertex 5.41 -21.894 0
      vertex -2.871 -21.894 0
    endloop
  endfacet
  facet normal -0 0 -1
    outer loop
      vertex 6.41 -20.894 0
      vertex -2.871 -21.894 0
      vertex 6.41 12.606 0
    endloop
  endfacet
  facet normal 0 0 -1
    outer loop
      vertex -3.235 -22.051 0
      vertex 6.41 12.606 0
      vertex -2.871 -21.894 0
    endloop
  endfacet
  facet normal -0 0 -1
    outer loop
      vertex 6.41 12.606 0
      vertex -3.235 -22.051 0
      vertex -6.998 25 0
    endloop
  endfacet
  facet normal 0 0 -1
    outer loop
      vertex -6.998 -25 0
      vertex -3.235 -22.051 0
      vertex -3.351 -22.394 0
    endloop
  endfacet
  facet normal 0 0 -1
    outer loop
      vertex -6.998 -25 0
      vertex -3.351 -22.394 0
      vertex -4 -24.856 0
    endloop
  endfacet
  facet normal 0 0 -1
    outer loop
      vertex 6.41 12.606 0
      vertex -4 24.856 0
      vertex 8.41 24.856 0
    endloop
  endfacet
  facet normal 0 0 -1
    outer loop
      vertex -6.998 -25 0
      vertex -4 -24.856 0
      vertex -4 -25 0
    endloop
  endfacet
  facet normal -0 0 -1
    outer loop
      vertex -3.235 -22.051 0
      vertex -6.998 -25 0
      vertex -6.998 25 0
    endloop
  endfacet
  facet normal 0 0 -1
    outer loop
      vertex 6.41 12.606 0
      vertex -6.998 25 0
      vertex -4 24.856 0
    endloop
  endfacet
  facet normal 0 0 -1
    outer loop
      vertex -4 24.856 0
      vertex -6.998 25 0
      vertex -4 25 0
    endloop
  endfacet
  facet normal 0 -1 0
    outer loop
      vertex -6.998 -25 0
      vertex -4 -25 6
      vertex -6.998 -25 6
    endloop
  endfacet
  facet normal 0 -1 -0
    outer loop
      vertex -4 -25 6
      vertex -6.998 -25 0
      vertex -4 -25 0
    endloop
  endfacet
  facet normal 0 1 -0
    outer loop
      vertex -4 25 0
      vertex -6.998 25 6
      vertex -4 25 6
    endloop
  endfacet
  facet normal 0 1 0
    outer loop
      vertex -6.998 25 6
      vertex -4 25 0
      vertex -6.998 25 0
    endloop
  endfacet
  facet normal -1 0 0
    outer loop
      vertex -6.998 25 0
      vertex -6.998 1.25 3
      vertex -6.998 25 6
    endloop
  endfacet
  facet normal -1 0 0
    outer loop
      vertex -6.998 25 0
      vertex -6.998 1.15485 2.52165
      vertex -6.998 1.25 3
    endloop
  endfacet
  facet normal -1 0 0
    outer loop
      vertex -6.998 25 0
      vertex -6.998 0.883883 2.11612
      vertex -6.998 1.15485 2.52165
    endloop
  endfacet
  facet normal -1 0 0
    outer loop
      vertex -6.998 25 0
      vertex -6.998 0.478354 1.84515
      vertex -6.998 0.883883 2.11612
    endloop
  endfacet
  facet normal -1 0 0
    outer loop
      vertex -6.998 25 0
      vertex -6.998 0 1.75
      vertex -6.998 0.478354 1.84515
    endloop
  endfacet
  facet normal -1 -0 0
    outer loop
      vertex -6.998 -1.15485 2.52165
      vertex -6.998 -25 0
      vertex -6.998 -1.25 3
    endloop
  endfacet
  facet normal -1 -0 0
    outer loop
      vertex -6.998 -0.883883 2.11612
      vertex -6.998 -25 0
      vertex -6.998 -1.15485 2.52165
    endloop
  endfacet
  facet normal -1 -0 0
    outer loop
      vertex -6.998 -0.478354 1.84515
      vertex -6.998 -25 0
      vertex -6.998 -0.883883 2.11612
    endloop
  endfacet
  facet normal -1 -0 0
    outer loop
      vertex -6.998 0 1.75
      vertex -6.998 -25 0
      vertex -6.998 -0.478354 1.84515
    endloop
  endfacet
  facet normal -1 0 0
    outer loop
      vertex -6.998 -25 0
      vertex -6.998 0 1.75
      vertex -6.998 25 0
    endloop
  endfacet
  facet normal -1 0 0
    outer loop
      vertex -6.998 1.15485 3.47835
      vertex -6.998 25 6
      vertex -6.998 1.25 3
    endloop
  endfacet
  facet normal -1 0 0
    outer loop
      vertex -6.998 0.883883 3.88388
      vertex -6.998 25 6
      vertex -6.998 1.15485 3.47835
    endloop
  endfacet
  facet normal -1 0 0
    outer loop
      vertex -6.998 0.478354 4.15485
      vertex -6.998 25 6
      vertex -6.998 0.883883 3.88388
    endloop
  endfacet
  facet normal -1 0 0
    outer loop
      vertex -6.998 0 4.25
      vertex -6.998 25 6
      vertex -6.998 0.478354 4.15485
    endloop
  endfacet
  facet normal -1 0 0
    outer loop
      vertex -6.998 -25 6
      vertex -6.998 -1.25 3
      vertex -6.998 -25 0
    endloop
  endfacet
  facet normal -1 0 0
    outer loop
      vertex -6.998 -1.25 3
      vertex -6.998 -25 6
      vertex -6.998 -1.15485 3.47835
    endloop
  endfacet
  facet normal -1 0 0
    outer loop
      vertex -6.998 -1.15485 3.47835
      vertex -6.998 -25 6
      vertex -6.998 -0.883883 3.88388
    endloop
  endfacet
  facet normal -1 0 0
    outer loop
      vertex -6.998 -0.883883 3.88388
      vertex -6.998 -25 6
      vertex -6.998 -0.478354 4.15485
    endloop
  endfacet
  facet normal -1 0 0
    outer loop
      vertex -6.998 0 4.25
      vertex -6.998 -25 6
      vertex -6.998 25 6
    endloop
  endfacet
  facet normal -1 0 0
    outer loop
      vertex -6.998 -0.478354 4.15485
      vertex -6.998 -25 6
      vertex -6.998 0 4.25
    endloop
  endfacet
  facet normal 0 -1 0
    outer loop
      vertex 6.41 12.606 0
      vertex 7.41 12.606 6
      vertex 6.41 12.606 6
    endloop
  endfacet
  facet normal 0 -1 -0
    outer loop
      vertex 7.41 12.606 6
      vertex 6.41 12.606 0
      vertex 7.41 12.606 0
    endloop
  endfacet
  facet normal 0.980581 -0.196116 0
    outer loop
      vertex 6.332 -21.284 6
      vertex 6.41 -20.894 0
      vertex 6.41 -20.894 6
    endloop
  endfacet
  facet normal 0.980581 -0.196116 0
    outer loop
      vertex 6.41 -20.894 0
      vertex 6.332 -21.284 6
      vertex 6.332 -21.284 0
    endloop
  endfacet
  facet normal 0 -1 0
    outer loop
      vertex -2.871 -21.894 0
      vertex 5.41 -21.894 6
      vertex -2.871 -21.894 6
    endloop
  endfacet
  facet normal 0 -1 -0
    outer loop
      vertex 5.41 -21.894 6
      vertex -2.871 -21.894 0
      vertex 5.41 -21.894 0
    endloop
  endfacet
  facet normal 0 1 -0
    outer loop
      vertex 7.66 -22.894 0
      vertex -2.871 -22.894 6
      vertex 7.66 -22.894 6
    endloop
  endfacet
  facet normal 0 1 0
    outer loop
      vertex -2.871 -22.894 6
      vertex 7.66 -22.894 0
      vertex -2.871 -22.894 0
    endloop
  endfacet
  facet normal 0 1 -0
    outer loop
      vertex 8.41 24.856 0
      vertex -4 24.856 6
      vertex 8.41 24.856 6
    endloop
  endfacet
  facet normal 0 1 0
    outer loop
      vertex -4 24.856 6
      vertex 8.41 24.856 0
      vertex -4 24.856 0
    endloop
  endfacet
  facet normal -1 0 0
    outer loop
      vertex 7.66 -22.894 0
      vertex 7.66 -20.965 6
      vertex 7.66 -20.965 0
    endloop
  endfacet
  facet normal -1 -0 0
    outer loop
      vertex 7.66 -20.965 6
      vertex 7.66 -22.894 0
      vertex 7.66 -22.894 6
    endloop
  endfacet
  facet normal 0.947293 -0.320369 0
    outer loop
      vertex -3.351 -22.394 6
      vertex -3.235 -22.051 0
      vertex -3.235 -22.051 6
    endloop
  endfacet
  facet normal 0.947293 -0.320369 0
    outer loop
      vertex -3.235 -22.051 0
      vertex -3.351 -22.394 6
      vertex -3.351 -22.394 0
    endloop
  endfacet
  facet normal 0.396052 -0.918228 0
    outer loop
      vertex -3.235 -22.051 0
      vertex -2.871 -21.894 6
      vertex -3.235 -22.051 6
    endloop
  endfacet
  facet normal 0.396052 -0.918228 0
    outer loop
      vertex -2.871 -21.894 6
      vertex -3.235 -22.051 0
      vertex -2.871 -21.894 0
    endloop
  endfacet
  facet normal 0 -0.195089 0.980785
    outer loop
      vertex -6.998 0.478354 1.84515
      vertex 5 0 1.75
      vertex 5 0.478354 1.84515
    endloop
  endfacet
  facet normal 0 -0.195089 0.980785
    outer loop
      vertex 5 0 1.75
      vertex -6.998 0.478354 1.84515
      vertex -6.998 0 1.75
    endloop
  endfacet
  facet normal 0 -0.195089 0.980785
    outer loop
      vertex -15 0.478354 1.84515
      vertex -7 0 1.75
      vertex -7 0.478354 1.84515
    endloop
  endfacet
  facet normal 0 -0.195089 0.980785
    outer loop
      vertex -7 0 1.75
      vertex -15 0.478354 1.84515
      vertex -15 0 1.75
    endloop
  endfacet
  facet normal 0 -0.195091 -0.980785
    outer loop
      vertex -6.998 0 4.25
      vertex 5 0.478354 4.15485
      vertex 5 0 4.25
    endloop
  endfacet
  facet normal -0 -0.195091 -0.980785
    outer loop
      vertex 5 0.478354 4.15485
      vertex -6.998 0 4.25
      vertex -6.998 0.478354 4.15485
    endloop
  endfacet
  facet normal 0 -0.195091 -0.980785
    outer loop
      vertex -15 0 4.25
      vertex -7 0.478354 4.15485
      vertex -7 0 4.25
    endloop
  endfacet
  facet normal -0 -0.195091 -0.980785
    outer loop
      vertex -7 0.478354 4.15485
      vertex -15 0 4.25
      vertex -15 0.478354 4.15485
    endloop
  endfacet
  facet normal 0 -0.555569 0.83147
    outer loop
      vertex -6.998 0.883883 2.11612
      vertex 5 0.478354 1.84515
      vertex 5 0.883883 2.11612
    endloop
  endfacet
  facet normal 0 -0.555569 0.83147
    outer loop
      vertex 5 0.478354 1.84515
      vertex -6.998 0.883883 2.11612
      vertex -6.998 0.478354 1.84515
    endloop
  endfacet
  facet normal 0 -0.555569 0.83147
    outer loop
      vertex -15 0.883883 2.11612
      vertex -7 0.478354 1.84515
      vertex -7 0.883883 2.11612
    endloop
  endfacet
  facet normal 0 -0.555569 0.83147
    outer loop
      vertex -7 0.478354 1.84515
      vertex -15 0.883883 2.11612
      vertex -15 0.478354 1.84515
    endloop
  endfacet
  facet normal 0 0.980785 -0.195091
    outer loop
      vertex 5 -1.25 3
      vertex -6.998 -1.15485 3.47835
      vertex 5 -1.15485 3.47835
    endloop
  endfacet
  facet normal 0 0.980785 -0.195091
    outer loop
      vertex -6.998 -1.15485 3.47835
      vertex 5 -1.25 3
      vertex -6.998 -1.25 3
    endloop
  endfacet
  facet normal 0 0.980785 -0.195091
    outer loop
      vertex -7 -1.25 3
      vertex -15 -1.15485 3.47835
      vertex -7 -1.15485 3.47835
    endloop
  endfacet
  facet normal 0 0.980785 -0.195091
    outer loop
      vertex -15 -1.15485 3.47835
      vertex -7 -1.25 3
      vertex -15 -1.25 3
    endloop
  endfacet
  facet normal 0 0.555569 -0.83147
    outer loop
      vertex -6.998 -0.883883 3.88388
      vertex 5 -0.478354 4.15485
      vertex 5 -0.883883 3.88388
    endloop
  endfacet
  facet normal 0 0.555569 -0.83147
    outer loop
      vertex 5 -0.478354 4.15485
      vertex -6.998 -0.883883 3.88388
      vertex -6.998 -0.478354 4.15485
    endloop
  endfacet
  facet normal 0 0.555569 -0.83147
    outer loop
      vertex -15 -0.883883 3.88388
      vertex -7 -0.478354 4.15485
      vertex -7 -0.883883 3.88388
    endloop
  endfacet
  facet normal 0 0.555569 -0.83147
    outer loop
      vertex -7 -0.478354 4.15485
      vertex -15 -0.883883 3.88388
      vertex -15 -0.478354 4.15485
    endloop
  endfacet
  facet normal 0 -0.83147 0.555569
    outer loop
      vertex -6.998 0.883883 2.11612
      vertex 5 1.15485 2.52165
      vertex -6.998 1.15485 2.52165
    endloop
  endfacet
  facet normal 0 -0.83147 0.555569
    outer loop
      vertex 5 1.15485 2.52165
      vertex -6.998 0.883883 2.11612
      vertex 5 0.883883 2.11612
    endloop
  endfacet
  facet normal 0 -0.83147 0.555569
    outer loop
      vertex -15 0.883883 2.11612
      vertex -7 1.15485 2.52165
      vertex -15 1.15485 2.52165
    endloop
  endfacet
  facet normal 0 -0.83147 0.555569
    outer loop
      vertex -7 1.15485 2.52165
      vertex -15 0.883883 2.11612
      vertex -7 0.883883 2.11612
    endloop
  endfacet
  facet normal 0 -0.83147 -0.555569
    outer loop
      vertex -6.998 1.15485 3.47835
      vertex 5 0.883883 3.88388
      vertex -6.998 0.883883 3.88388
    endloop
  endfacet
  facet normal 0 -0.83147 -0.555569
    outer loop
      vertex 5 0.883883 3.88388
      vertex -6.998 1.15485 3.47835
      vertex 5 1.15485 3.47835
    endloop
  endfacet
  facet normal 0 -0.83147 -0.555569
    outer loop
      vertex -15 1.15485 3.47835
      vertex -7 0.883883 3.88388
      vertex -15 0.883883 3.88388
    endloop
  endfacet
  facet normal 0 -0.83147 -0.555569
    outer loop
      vertex -7 0.883883 3.88388
      vertex -15 1.15485 3.47835
      vertex -7 1.15485 3.47835
    endloop
  endfacet
  facet normal 0 -0.555569 -0.83147
    outer loop
      vertex -6.998 0.478354 4.15485
      vertex 5 0.883883 3.88388
      vertex 5 0.478354 4.15485
    endloop
  endfacet
  facet normal -0 -0.555569 -0.83147
    outer loop
      vertex 5 0.883883 3.88388
      vertex -6.998 0.478354 4.15485
      vertex -6.998 0.883883 3.88388
    endloop
  endfacet
  facet normal 0 -0.555569 -0.83147
    outer loop
      vertex -15 0.478354 4.15485
      vertex -7 0.883883 3.88388
      vertex -7 0.478354 4.15485
    endloop
  endfacet
  facet normal -0 -0.555569 -0.83147
    outer loop
      vertex -7 0.883883 3.88388
      vertex -15 0.478354 4.15485
      vertex -15 0.883883 3.88388
    endloop
  endfacet
  facet normal 0 -0.980785 -0.195091
    outer loop
      vertex -6.998 1.25 3
      vertex 5 1.15485 3.47835
      vertex -6.998 1.15485 3.47835
    endloop
  endfacet
  facet normal 0 -0.980785 -0.195091
    outer loop
      vertex 5 1.15485 3.47835
      vertex -6.998 1.25 3
      vertex 5 1.25 3
    endloop
  endfacet
  facet normal 0 -0.980785 -0.195091
    outer loop
      vertex -15 1.25 3
      vertex -7 1.15485 3.47835
      vertex -15 1.15485 3.47835
    endloop
  endfacet
  facet normal 0 -0.980785 -0.195091
    outer loop
      vertex -7 1.15485 3.47835
      vertex -15 1.25 3
      vertex -7 1.25 3
    endloop
  endfacet
  facet normal 0 0.980785 0.195091
    outer loop
      vertex 5 -1.15485 2.52165
      vertex -6.998 -1.25 3
      vertex 5 -1.25 3
    endloop
  endfacet
  facet normal 0 0.980785 0.195091
    outer loop
      vertex -6.998 -1.25 3
      vertex 5 -1.15485 2.52165
      vertex -6.998 -1.15485 2.52165
    endloop
  endfacet
  facet normal 0 0.980785 0.195091
    outer loop
      vertex -7 -1.15485 2.52165
      vertex -15 -1.25 3
      vertex -7 -1.25 3
    endloop
  endfacet
  facet normal 0 0.980785 0.195091
    outer loop
      vertex -15 -1.25 3
      vertex -7 -1.15485 2.52165
      vertex -15 -1.15485 2.52165
    endloop
  endfacet
  facet normal -0 0.555569 0.83147
    outer loop
      vertex -6.998 -0.478354 1.84515
      vertex 5 -0.883883 2.11612
      vertex 5 -0.478354 1.84515
    endloop
  endfacet
  facet normal 0 0.555569 0.83147
    outer loop
      vertex 5 -0.883883 2.11612
      vertex -6.998 -0.478354 1.84515
      vertex -6.998 -0.883883 2.11612
    endloop
  endfacet
  facet normal -0 0.555569 0.83147
    outer loop
      vertex -15 -0.478354 1.84515
      vertex -7 -0.883883 2.11612
      vertex -7 -0.478354 1.84515
    endloop
  endfacet
  facet normal 0 0.555569 0.83147
    outer loop
      vertex -7 -0.883883 2.11612
      vertex -15 -0.478354 1.84515
      vertex -15 -0.883883 2.11612
    endloop
  endfacet
  facet normal 0 0.83147 -0.555569
    outer loop
      vertex 5 -1.15485 3.47835
      vertex -6.998 -0.883883 3.88388
      vertex 5 -0.883883 3.88388
    endloop
  endfacet
  facet normal 0 0.83147 -0.555569
    outer loop
      vertex -6.998 -0.883883 3.88388
      vertex 5 -1.15485 3.47835
      vertex -6.998 -1.15485 3.47835
    endloop
  endfacet
  facet normal 0 0.83147 -0.555569
    outer loop
      vertex -7 -1.15485 3.47835
      vertex -15 -0.883883 3.88388
      vertex -7 -0.883883 3.88388
    endloop
  endfacet
  facet normal 0 0.83147 -0.555569
    outer loop
      vertex -15 -0.883883 3.88388
      vertex -7 -1.15485 3.47835
      vertex -15 -1.15485 3.47835
    endloop
  endfacet
  facet normal -1 0 0
    outer loop
      vertex 5 1.15485 2.52165
      vertex 5 1.15485 3.47835
      vertex 5 1.25 3
    endloop
  endfacet
  facet normal -1 0 0
    outer loop
      vertex 5 0.883883 2.11612
      vertex 5 1.15485 3.47835
      vertex 5 1.15485 2.52165
    endloop
  endfacet
  facet normal -1 0 0
    outer loop
      vertex 5 0.883883 2.11612
      vertex 5 0.883883 3.88388
      vertex 5 1.15485 3.47835
    endloop
  endfacet
  facet normal -1 0 0
    outer loop
      vertex 5 0.478354 1.84515
      vertex 5 0.883883 3.88388
      vertex 5 0.883883 2.11612
    endloop
  endfacet
  facet normal -1 0 0
    outer loop
      vertex 5 0.478354 1.84515
      vertex 5 0.478354 4.15485
      vertex 5 0.883883 3.88388
    endloop
  endfacet
  facet normal -1 0 0
    outer loop
      vertex 5 0 1.75
      vertex 5 0.478354 4.15485
      vertex 5 0.478354 1.84515
    endloop
  endfacet
  facet normal -1 0 0
    outer loop
      vertex 5 0 1.75
      vertex 5 0 4.25
      vertex 5 0.478354 4.15485
    endloop
  endfacet
  facet normal -1 0 0
    outer loop
      vertex 5 -0.478354 1.84515
      vertex 5 0 4.25
      vertex 5 0 1.75
    endloop
  endfacet
  facet normal -1 0 0
    outer loop
      vertex 5 -0.478354 1.84515
      vertex 5 -0.478354 4.15485
      vertex 5 0 4.25
    endloop
  endfacet
  facet normal -1 0 0
    outer loop
      vertex 5 -0.883883 2.11612
      vertex 5 -0.478354 4.15485
      vertex 5 -0.478354 1.84515
    endloop
  endfacet
  facet normal -1 0 0
    outer loop
      vertex 5 -0.883883 2.11612
      vertex 5 -0.883883 3.88388
      vertex 5 -0.478354 4.15485
    endloop
  endfacet
  facet normal -1 0 0
    outer loop
      vertex 5 -1.15485 2.52165
      vertex 5 -0.883883 3.88388
      vertex 5 -0.883883 2.11612
    endloop
  endfacet
  facet normal -1 0 0
    outer loop
      vertex 5 -1.15485 2.52165
      vertex 5 -1.15485 3.47835
      vertex 5 -0.883883 3.88388
    endloop
  endfacet
  facet normal -1 0 -0
    outer loop
      vertex 5 -1.15485 3.47835
      vertex 5 -1.15485 2.52165
      vertex 5 -1.25 3
    endloop
  endfacet
  facet normal 0 0.195091 -0.980785
    outer loop
      vertex -6.998 -0.478354 4.15485
      vertex 5 0 4.25
      vertex 5 -0.478354 4.15485
    endloop
  endfacet
  facet normal 0 0.195091 -0.980785
    outer loop
      vertex 5 0 4.25
      vertex -6.998 -0.478354 4.15485
      vertex -6.998 0 4.25
    endloop
  endfacet
  facet normal 0 0.195091 -0.980785
    outer loop
      vertex -15 -0.478354 4.15485
      vertex -7 0 4.25
      vertex -7 -0.478354 4.15485
    endloop
  endfacet
  facet normal 0 0.195091 -0.980785
    outer loop
      vertex -7 0 4.25
      vertex -15 -0.478354 4.15485
      vertex -15 0 4.25
    endloop
  endfacet
  facet normal 0 -0.980785 0.195091
    outer loop
      vertex -6.998 1.15485 2.52165
      vertex 5 1.25 3
      vertex -6.998 1.25 3
    endloop
  endfacet
  facet normal 0 -0.980785 0.195091
    outer loop
      vertex 5 1.25 3
      vertex -6.998 1.15485 2.52165
      vertex 5 1.15485 2.52165
    endloop
  endfacet
  facet normal 0 -0.980785 0.195091
    outer loop
      vertex -15 1.15485 2.52165
      vertex -7 1.25 3
      vertex -15 1.25 3
    endloop
  endfacet
  facet normal 0 -0.980785 0.195091
    outer loop
      vertex -7 1.25 3
      vertex -15 1.15485 2.52165
      vertex -7 1.15485 2.52165
    endloop
  endfacet
  facet normal -0 0.195089 0.980785
    outer loop
      vertex -6.998 0 1.75
      vertex 5 -0.478354 1.84515
      vertex 5 0 1.75
    endloop
  endfacet
  facet normal 0 0.195089 0.980785
    outer loop
      vertex 5 -0.478354 1.84515
      vertex -6.998 0 1.75
      vertex -6.998 -0.478354 1.84515
    endloop
  endfacet
  facet normal -0 0.195089 0.980785
    outer loop
      vertex -15 0 1.75
      vertex -7 -0.478354 1.84515
      vertex -7 0 1.75
    endloop
  endfacet
  facet normal 0 0.195089 0.980785
    outer loop
      vertex -7 -0.478354 1.84515
      vertex -15 0 1.75
      vertex -15 -0.478354 1.84515
    endloop
  endfacet
  facet normal 0 0.83147 0.555569
    outer loop
      vertex 5 -0.883883 2.11612
      vertex -6.998 -1.15485 2.52165
      vertex 5 -1.15485 2.52165
    endloop
  endfacet
  facet normal 0 0.83147 0.555569
    outer loop
      vertex -6.998 -1.15485 2.52165
      vertex 5 -0.883883 2.11612
      vertex -6.998 -0.883883 2.11612
    endloop
  endfacet
  facet normal 0 0.83147 0.555569
    outer loop
      vertex -7 -0.883883 2.11612
      vertex -15 -1.15485 2.52165
      vertex -7 -1.15485 2.52165
    endloop
  endfacet
  facet normal 0 0.83147 0.555569
    outer loop
      vertex -15 -1.15485 2.52165
      vertex -7 -0.883883 2.11612
      vertex -15 -0.883883 2.11612
    endloop
  endfacet
endsolid OpenSCAD_Model
